<svg xmlns="http://www.w3.org/2000/svg" xmlns:xlink="http://www.w3.org/1999/xlink" viewBox="0,0,256,256" width="64px" height="64px" fill-rule="nonzero"><defs><linearGradient x1="32" y1="16.501" x2="32" y2="23.293" gradientUnits="userSpaceOnUse" id="color-1"><stop offset="0" stop-color="#1e95df"></stop><stop offset="1" stop-color="#b155d8"></stop></linearGradient><linearGradient x1="32" y1="10.001" x2="32" y2="55.262" gradientUnits="userSpaceOnUse" id="color-2"><stop offset="0" stop-color="#1a6dff"></stop><stop offset="1" stop-color="#c822ff"></stop></linearGradient></defs><g fill="none" fill-rule="nonzero" stroke="none" stroke-width="1" stroke-linecap="butt" stroke-linejoin="miter" stroke-miterlimit="10" stroke-dasharray="" stroke-dashoffset="0" font-family="none" font-weight="none" font-size="none" text-anchor="none" style="mix-blend-mode: normal"><g transform="scale(4,4)"><path d="M23,20.002l9,-3l9,3v0l-9,3z" fill="url(#color-1)"></path><path d="M56.635,21.134l-3.378,-1.133l3.378,-1.132c0.829,-0.278 1.365,-1.025 1.365,-1.902c0,-0.88 -0.538,-1.628 -1.37,-1.907l-14.619,-4.902c-0.615,-0.207 -1.294,-0.207 -1.909,0l-8.102,2.716l-8.101,-2.717c-0.626,-0.209 -1.285,-0.209 -1.901,-0.002l-7.458,2.501c-3.608,1.21 -7.08,2.373 -7.172,2.403c-0.831,0.281 -1.368,1.03 -1.368,1.91c0.001,0.876 0.537,1.622 1.367,1.9l3.376,1.132l-3.372,1.131c-0.832,0.278 -1.369,1.026 -1.369,1.906c0,0.879 0.537,1.627 1.369,1.905l5.629,1.888v19.512c0,1.245 0.833,2.342 2.072,2.729l14.724,4.595c0.711,0.221 1.457,0.332 2.204,0.332c0.747,0 1.493,-0.111 2.204,-0.332l14.725,-4.596c1.238,-0.386 2.071,-1.483 2.071,-2.728v-19.512l5.629,-1.887c0.833,-0.28 1.371,-1.028 1.371,-1.908c0,-0.876 -0.536,-1.624 -1.365,-1.902zM40.738,12.054c0.205,-0.068 0.43,-0.068 0.635,0l14.626,4.919l-5.944,1.993l-15.01,-5.003zM17.162,20.001l14.838,-4.946l14.838,4.946l-14.838,4.947zM8.002,16.957c0.078,-0.026 3.558,-1.192 7.174,-2.405l7.459,-2.5c0.1,-0.034 0.204,-0.051 0.309,-0.051c0.106,0 0.214,0.018 0.318,0.053l5.693,1.909l-15.001,5zM13.945,21.037l15.01,5.003l-5.695,1.908c-0.203,0.07 -0.428,0.068 -0.635,0l-14.619,-4.92zM15.669,47.163c-0.4,-0.125 -0.669,-0.455 -0.669,-0.82v-5.491l16,4.889v6.155c-0.205,-0.038 -0.41,-0.078 -0.608,-0.14zM48.332,47.162l-14.724,4.595c-0.199,0.062 -0.404,0.101 -0.608,0.14v-6.155l16,-4.889v5.491c0,0.364 -0.269,0.694 -0.668,0.818zM49,38.762l-16,4.888v-11.65h-2v11.65l-16,-4.888v-11.26l6.99,2.344c0.309,0.103 0.632,0.154 0.955,0.154c0.323,0 0.646,-0.052 0.952,-0.155l8.103,-2.716l8.102,2.716c0.617,0.207 1.294,0.207 1.907,0l6.991,-2.344zM41.372,27.949c-0.203,0.07 -0.428,0.068 -0.635,0l-5.693,-1.908l15.001,-5l5.949,2.007z" fill="url(#color-2)"></path></g></g></svg>